<mxfile host="Electron" modified="2022-10-20T14:17:05.041Z" agent="5.0 (Windows NT 10.0; Win64; x64) AppleWebKit/537.36 (KHTML, like Gecko) draw.io/20.3.0 Chrome/104.0.5112.114 Electron/20.1.3 Safari/537.36" etag="XxmXXoccOsXtFDlofghd" compressed="false" version="20.3.0" type="device">
  <diagram id="UpFueUuBWqiXrLH55dX2" name="第 1 页">
    <mxGraphModel dx="1438" dy="1041" grid="1" gridSize="10" guides="1" tooltips="1" connect="1" arrows="1" fold="1" page="0" pageScale="1" pageWidth="1920" pageHeight="1200" background="none" math="0" shadow="0">
      <root>
        <mxCell id="0" />
        <mxCell id="1" parent="0" />
        <mxCell id="NWxRKm_0L-wRh15dt9WS-9" style="edgeStyle=orthogonalEdgeStyle;orthogonalLoop=1;jettySize=auto;html=1;exitX=1;exitY=0.5;exitDx=0;exitDy=0;fontSize=16;curved=1;dashed=1;" edge="1" parent="1" source="NWxRKm_0L-wRh15dt9WS-2" target="Faw4RQUeOR1Ntfg5_-7v-4">
          <mxGeometry relative="1" as="geometry" />
        </mxCell>
        <mxCell id="k2cswU666XtifslHD5MH-2" value="" style="rounded=1;whiteSpace=wrap;html=1;sketch=1;fontSize=16;fillColor=#b1ddf0;strokeColor=#10739e;" parent="1" vertex="1">
          <mxGeometry x="450" y="115" width="290" height="175" as="geometry" />
        </mxCell>
        <mxCell id="Faw4RQUeOR1Ntfg5_-7v-2" value="" style="rounded=1;whiteSpace=wrap;html=1;glass=0;shadow=0;sketch=1;fillColor=none;dashed=1;" parent="1" vertex="1">
          <mxGeometry x="610" y="480" width="570" height="270" as="geometry" />
        </mxCell>
        <mxCell id="Faw4RQUeOR1Ntfg5_-7v-4" value="堆 &lt;br&gt;heap" style="rounded=1;whiteSpace=wrap;html=1;sketch=1;hachureGap=4;fontFamily=微软雅黑;fontSize=20;fillColor=#fad9d5;strokeColor=#ae4132;" parent="1" vertex="1">
          <mxGeometry x="630" y="540" width="150" height="70" as="geometry" />
        </mxCell>
        <mxCell id="Faw4RQUeOR1Ntfg5_-7v-5" value="方法区 &lt;br&gt;Method area" style="rounded=1;whiteSpace=wrap;html=1;sketch=1;hachureGap=4;fontFamily=Architects Daughter;fontSource=https%3A%2F%2Ffonts.googleapis.com%2Fcss%3Ffamily%3DArchitects%2BDaughter;fontSize=20;fillColor=#fad9d5;strokeColor=#ae4132;" parent="1" vertex="1">
          <mxGeometry x="630" y="650" width="150" height="70" as="geometry" />
        </mxCell>
        <mxCell id="k2cswU666XtifslHD5MH-25" style="edgeStyle=orthogonalEdgeStyle;orthogonalLoop=1;jettySize=auto;html=1;exitX=0.5;exitY=0;exitDx=0;exitDy=0;entryX=0.373;entryY=1.011;entryDx=0;entryDy=0;entryPerimeter=0;fontSize=14;curved=1;dashed=1;" parent="1" source="Faw4RQUeOR1Ntfg5_-7v-6" target="k2cswU666XtifslHD5MH-2" edge="1">
          <mxGeometry relative="1" as="geometry">
            <Array as="points">
              <mxPoint x="880" y="460" />
              <mxPoint x="558" y="460" />
            </Array>
          </mxGeometry>
        </mxCell>
        <mxCell id="Faw4RQUeOR1Ntfg5_-7v-6" value="Java栈&lt;br&gt;Java Stack" style="rounded=1;whiteSpace=wrap;html=1;sketch=1;hachureGap=4;fontFamily=Architects Daughter;fontSource=https%3A%2F%2Ffonts.googleapis.com%2Fcss%3Ffamily%3DArchitects%2BDaughter;fontSize=20;fillColor=#b1ddf0;strokeColor=#10739e;" parent="1" vertex="1">
          <mxGeometry x="820" y="545" width="120" height="65" as="geometry" />
        </mxCell>
        <mxCell id="Faw4RQUeOR1Ntfg5_-7v-7" value="本地方法栈&lt;br&gt;Native Method Stack" style="rounded=1;whiteSpace=wrap;html=1;sketch=1;hachureGap=4;fontFamily=Architects Daughter;fontSource=https%3A%2F%2Ffonts.googleapis.com%2Fcss%3Ffamily%3DArchitects%2BDaughter;fontSize=20;fillColor=#b1ddf0;strokeColor=#10739e;" parent="1" vertex="1">
          <mxGeometry x="960" y="545" width="200" height="60" as="geometry" />
        </mxCell>
        <mxCell id="Bb6Hwb2SqrQJIxjeNM7L-2" value="" style="edgeStyle=orthogonalEdgeStyle;orthogonalLoop=1;jettySize=auto;html=1;dashed=1;curved=1;" parent="1" source="Faw4RQUeOR1Ntfg5_-7v-8" target="Bb6Hwb2SqrQJIxjeNM7L-1" edge="1">
          <mxGeometry relative="1" as="geometry" />
        </mxCell>
        <mxCell id="Faw4RQUeOR1Ntfg5_-7v-8" value="程序计数器&lt;br&gt;Program Counter Register" style="rounded=1;whiteSpace=wrap;html=1;sketch=1;hachureGap=4;fontFamily=Architects Daughter;fontSource=https%3A%2F%2Ffonts.googleapis.com%2Fcss%3Ffamily%3DArchitects%2BDaughter;fontSize=20;fillColor=#b1ddf0;strokeColor=#10739e;" parent="1" vertex="1">
          <mxGeometry x="820" y="650" width="340" height="70" as="geometry" />
        </mxCell>
        <mxCell id="Faw4RQUeOR1Ntfg5_-7v-9" value="运行时数据区" style="text;html=1;strokeColor=none;fillColor=none;align=center;verticalAlign=middle;whiteSpace=wrap;rounded=0;sketch=1;hachureGap=4;fontFamily=Architects Daughter;fontSource=https%3A%2F%2Ffonts.googleapis.com%2Fcss%3Ffamily%3DArchitects%2BDaughter;fontSize=20;" parent="1" vertex="1">
          <mxGeometry x="780" y="490" width="190" height="30" as="geometry" />
        </mxCell>
        <mxCell id="Faw4RQUeOR1Ntfg5_-7v-11" value="Class Files" style="shape=note;size=29;whiteSpace=wrap;html=1;rounded=1;sketch=1;hachureGap=4;fontFamily=Architects Daughter;fontSource=https%3A%2F%2Ffonts.googleapis.com%2Fcss%3Ffamily%3DArchitects%2BDaughter;fontSize=20;" parent="1" vertex="1">
          <mxGeometry x="810" y="335" width="100" height="100" as="geometry" />
        </mxCell>
        <mxCell id="Faw4RQUeOR1Ntfg5_-7v-56" style="edgeStyle=orthogonalEdgeStyle;sketch=1;hachureGap=4;orthogonalLoop=1;jettySize=auto;html=1;exitX=0.5;exitY=0;exitDx=0;exitDy=0;entryX=0.036;entryY=0.994;entryDx=0;entryDy=0;shadow=0;fontFamily=Architects Daughter;fontSource=https%3A%2F%2Ffonts.googleapis.com%2Fcss%3Ffamily%3DArchitects%2BDaughter;fontSize=18;endArrow=open;startSize=14;endSize=14;sourcePerimeterSpacing=8;targetPerimeterSpacing=8;curved=1;entryPerimeter=0;" parent="1" source="Faw4RQUeOR1Ntfg5_-7v-13" target="Faw4RQUeOR1Ntfg5_-7v-55" edge="1">
          <mxGeometry relative="1" as="geometry" />
        </mxCell>
        <mxCell id="Faw4RQUeOR1Ntfg5_-7v-13" value="类装载&lt;br&gt;Class Loader" style="rounded=1;whiteSpace=wrap;html=1;sketch=1;hachureGap=4;fontFamily=Architects Daughter;fontSource=https%3A%2F%2Ffonts.googleapis.com%2Fcss%3Ffamily%3DArchitects%2BDaughter;fontSize=20;fillColor=#ffcccc;strokeColor=#36393d;" parent="1" vertex="1">
          <mxGeometry x="990" y="350" width="160" height="70" as="geometry" />
        </mxCell>
        <mxCell id="Faw4RQUeOR1Ntfg5_-7v-17" value="执行引擎&lt;br&gt;Execution Engine" style="rounded=1;whiteSpace=wrap;html=1;sketch=1;hachureGap=4;fontFamily=Architects Daughter;fontSource=https%3A%2F%2Ffonts.googleapis.com%2Fcss%3Ffamily%3DArchitects%2BDaughter;fontSize=20;fillColor=#ffcccc;strokeColor=#36393d;" parent="1" vertex="1">
          <mxGeometry x="620" y="820" width="160" height="70" as="geometry" />
        </mxCell>
        <mxCell id="Faw4RQUeOR1Ntfg5_-7v-27" value="" style="endArrow=classic;html=1;rounded=1;shadow=0;sketch=1;hachureGap=4;fontFamily=Architects Daughter;fontSource=https%3A%2F%2Ffonts.googleapis.com%2Fcss%3Ffamily%3DArchitects%2BDaughter;fontSize=16;startSize=14;endSize=14;sourcePerimeterSpacing=8;targetPerimeterSpacing=8;curved=1;" parent="1" edge="1">
          <mxGeometry width="50" height="50" relative="1" as="geometry">
            <mxPoint x="920" y="390" as="sourcePoint" />
            <mxPoint x="970" y="390" as="targetPoint" />
          </mxGeometry>
        </mxCell>
        <mxCell id="Faw4RQUeOR1Ntfg5_-7v-28" value="" style="endArrow=classic;startArrow=classic;html=1;rounded=1;shadow=0;sketch=1;hachureGap=4;fontFamily=Architects Daughter;fontSource=https%3A%2F%2Ffonts.googleapis.com%2Fcss%3Ffamily%3DArchitects%2BDaughter;fontSize=16;startSize=14;endSize=14;sourcePerimeterSpacing=8;targetPerimeterSpacing=8;curved=1;" parent="1" edge="1">
          <mxGeometry width="50" height="50" relative="1" as="geometry">
            <mxPoint x="690" y="810" as="sourcePoint" />
            <mxPoint x="690" y="760" as="targetPoint" />
          </mxGeometry>
        </mxCell>
        <mxCell id="Faw4RQUeOR1Ntfg5_-7v-29" value="" style="endArrow=classic;startArrow=classic;html=1;rounded=1;shadow=0;sketch=1;hachureGap=4;fontFamily=Architects Daughter;fontSource=https%3A%2F%2Ffonts.googleapis.com%2Fcss%3Ffamily%3DArchitects%2BDaughter;fontSize=16;startSize=14;endSize=14;sourcePerimeterSpacing=8;targetPerimeterSpacing=8;curved=1;" parent="1" edge="1">
          <mxGeometry width="50" height="50" relative="1" as="geometry">
            <mxPoint x="1088.82" y="480" as="sourcePoint" />
            <mxPoint x="1088.82" y="420" as="targetPoint" />
          </mxGeometry>
        </mxCell>
        <mxCell id="Faw4RQUeOR1Ntfg5_-7v-31" value="" style="endArrow=classic;startArrow=classic;html=1;rounded=1;shadow=0;sketch=1;hachureGap=4;fontFamily=Architects Daughter;fontSource=https%3A%2F%2Ffonts.googleapis.com%2Fcss%3Ffamily%3DArchitects%2BDaughter;fontSize=16;startSize=14;endSize=14;sourcePerimeterSpacing=8;targetPerimeterSpacing=8;curved=1;" parent="1" edge="1">
          <mxGeometry width="50" height="50" relative="1" as="geometry">
            <mxPoint x="800" y="860" as="sourcePoint" />
            <mxPoint x="890" y="860" as="targetPoint" />
          </mxGeometry>
        </mxCell>
        <mxCell id="Faw4RQUeOR1Ntfg5_-7v-32" value="本地方法接口&lt;br&gt;Native Interface" style="rounded=1;whiteSpace=wrap;html=1;sketch=1;hachureGap=4;fontFamily=Architects Daughter;fontSource=https%3A%2F%2Ffonts.googleapis.com%2Fcss%3Ffamily%3DArchitects%2BDaughter;fontSize=20;fillColor=none;" parent="1" vertex="1">
          <mxGeometry x="900" y="825" width="190" height="60" as="geometry" />
        </mxCell>
        <mxCell id="Faw4RQUeOR1Ntfg5_-7v-33" value="" style="endArrow=classic;startArrow=classic;html=1;rounded=1;shadow=0;sketch=1;hachureGap=4;fontFamily=Architects Daughter;fontSource=https%3A%2F%2Ffonts.googleapis.com%2Fcss%3Ffamily%3DArchitects%2BDaughter;fontSize=16;startSize=14;endSize=14;sourcePerimeterSpacing=8;targetPerimeterSpacing=8;curved=1;" parent="1" edge="1">
          <mxGeometry width="50" height="50" relative="1" as="geometry">
            <mxPoint x="989.47" y="810.0000000000002" as="sourcePoint" />
            <mxPoint x="989.47" y="760.0000000000002" as="targetPoint" />
          </mxGeometry>
        </mxCell>
        <mxCell id="Faw4RQUeOR1Ntfg5_-7v-34" value="本地方法库" style="text;html=1;strokeColor=none;fillColor=none;align=center;verticalAlign=middle;whiteSpace=wrap;rounded=0;sketch=1;hachureGap=4;fontFamily=Architects Daughter;fontSource=https%3A%2F%2Ffonts.googleapis.com%2Fcss%3Ffamily%3DArchitects%2BDaughter;fontSize=18;" parent="1" vertex="1">
          <mxGeometry x="1140" y="840" width="120" height="30" as="geometry" />
        </mxCell>
        <mxCell id="Faw4RQUeOR1Ntfg5_-7v-36" value="" style="endArrow=classic;html=1;rounded=1;shadow=0;sketch=1;hachureGap=4;fontFamily=Architects Daughter;fontSource=https%3A%2F%2Ffonts.googleapis.com%2Fcss%3Ffamily%3DArchitects%2BDaughter;fontSize=16;startSize=14;endSize=14;sourcePerimeterSpacing=8;targetPerimeterSpacing=8;curved=1;" parent="1" edge="1">
          <mxGeometry width="50" height="50" relative="1" as="geometry">
            <mxPoint x="1140" y="854.47" as="sourcePoint" />
            <mxPoint x="1100" y="854.47" as="targetPoint" />
          </mxGeometry>
        </mxCell>
        <mxCell id="Faw4RQUeOR1Ntfg5_-7v-39" value="" style="endArrow=none;dashed=1;html=1;dashPattern=1 3;strokeWidth=2;rounded=0;shadow=0;sketch=1;hachureGap=4;fontFamily=Architects Daughter;fontSource=https%3A%2F%2Ffonts.googleapis.com%2Fcss%3Ffamily%3DArchitects%2BDaughter;fontSize=16;startSize=14;endSize=14;sourcePerimeterSpacing=8;targetPerimeterSpacing=8;" parent="1" edge="1">
          <mxGeometry width="50" height="50" relative="1" as="geometry">
            <mxPoint x="800" y="739" as="sourcePoint" />
            <mxPoint x="800" y="544" as="targetPoint" />
          </mxGeometry>
        </mxCell>
        <mxCell id="Faw4RQUeOR1Ntfg5_-7v-40" value="" style="endArrow=none;dashed=1;html=1;dashPattern=1 3;strokeWidth=2;rounded=0;shadow=0;sketch=1;hachureGap=4;fontFamily=Architects Daughter;fontSource=https%3A%2F%2Ffonts.googleapis.com%2Fcss%3Ffamily%3DArchitects%2BDaughter;fontSize=18;startSize=14;endSize=14;sourcePerimeterSpacing=8;targetPerimeterSpacing=8;" parent="1" edge="1">
          <mxGeometry width="50" height="50" relative="1" as="geometry">
            <mxPoint x="650" y="530" as="sourcePoint" />
            <mxPoint x="1160" y="530" as="targetPoint" />
          </mxGeometry>
        </mxCell>
        <mxCell id="Faw4RQUeOR1Ntfg5_-7v-44" value="Java File" style="shape=note;whiteSpace=wrap;html=1;backgroundOutline=1;darkOpacity=0.05;rounded=1;sketch=1;hachureGap=4;fontFamily=Architects Daughter;fontSource=https%3A%2F%2Ffonts.googleapis.com%2Fcss%3Ffamily%3DArchitects%2BDaughter;fontSize=18;" parent="1" vertex="1">
          <mxGeometry x="630" y="335" width="80" height="100" as="geometry" />
        </mxCell>
        <mxCell id="Faw4RQUeOR1Ntfg5_-7v-45" value="" style="endArrow=classic;html=1;rounded=1;shadow=0;sketch=1;hachureGap=4;fontFamily=Architects Daughter;fontSource=https%3A%2F%2Ffonts.googleapis.com%2Fcss%3Ffamily%3DArchitects%2BDaughter;fontSize=16;startSize=14;endSize=14;sourcePerimeterSpacing=8;targetPerimeterSpacing=8;curved=1;" parent="1" edge="1">
          <mxGeometry width="50" height="50" relative="1" as="geometry">
            <mxPoint x="730" y="390" as="sourcePoint" />
            <mxPoint x="800" y="390" as="targetPoint" />
          </mxGeometry>
        </mxCell>
        <mxCell id="Faw4RQUeOR1Ntfg5_-7v-53" value="编译" style="edgeLabel;html=1;align=center;verticalAlign=middle;resizable=0;points=[];fontSize=18;fontFamily=Architects Daughter;" parent="Faw4RQUeOR1Ntfg5_-7v-45" vertex="1" connectable="0">
          <mxGeometry x="-0.5328" relative="1" as="geometry">
            <mxPoint x="14" as="offset" />
          </mxGeometry>
        </mxCell>
        <mxCell id="Faw4RQUeOR1Ntfg5_-7v-55" value="" style="rounded=1;whiteSpace=wrap;html=1;sketch=1;hachureGap=4;fontFamily=Architects Daughter;fontSource=https%3A%2F%2Ffonts.googleapis.com%2Fcss%3Ffamily%3DArchitects%2BDaughter;fontSize=18;fillColor=none;" parent="1" vertex="1">
          <mxGeometry x="1160" y="-20" width="570" height="310" as="geometry" />
        </mxCell>
        <mxCell id="Faw4RQUeOR1Ntfg5_-7v-62" style="edgeStyle=orthogonalEdgeStyle;curved=1;sketch=1;hachureGap=4;orthogonalLoop=1;jettySize=auto;html=1;entryX=0;entryY=0.5;entryDx=0;entryDy=0;shadow=0;fontFamily=Architects Daughter;fontSource=https%3A%2F%2Ffonts.googleapis.com%2Fcss%3Ffamily%3DArchitects%2BDaughter;fontSize=18;endArrow=open;startSize=14;endSize=14;sourcePerimeterSpacing=8;targetPerimeterSpacing=8;" parent="1" source="Faw4RQUeOR1Ntfg5_-7v-59" target="Faw4RQUeOR1Ntfg5_-7v-60" edge="1">
          <mxGeometry relative="1" as="geometry" />
        </mxCell>
        <mxCell id="Faw4RQUeOR1Ntfg5_-7v-75" style="edgeStyle=orthogonalEdgeStyle;curved=1;sketch=1;hachureGap=4;orthogonalLoop=1;jettySize=auto;html=1;shadow=0;fontFamily=Architects Daughter;fontSource=https%3A%2F%2Ffonts.googleapis.com%2Fcss%3Ffamily%3DArchitects%2BDaughter;fontSize=16;endArrow=open;startSize=14;endSize=14;sourcePerimeterSpacing=8;targetPerimeterSpacing=8;dashed=1;" parent="1" source="Faw4RQUeOR1Ntfg5_-7v-59" target="Faw4RQUeOR1Ntfg5_-7v-74" edge="1">
          <mxGeometry relative="1" as="geometry" />
        </mxCell>
        <mxCell id="Faw4RQUeOR1Ntfg5_-7v-59" value="" style="rounded=1;whiteSpace=wrap;html=1;sketch=1;hachureGap=4;fontFamily=Architects Daughter;fontSource=https%3A%2F%2Ffonts.googleapis.com%2Fcss%3Ffamily%3DArchitects%2BDaughter;fontSize=18;fillColor=#ffcc99;strokeColor=#36393d;" parent="1" vertex="1">
          <mxGeometry x="1190" y="20" width="120" height="230" as="geometry" />
        </mxCell>
        <mxCell id="Faw4RQUeOR1Ntfg5_-7v-63" style="edgeStyle=orthogonalEdgeStyle;curved=1;sketch=1;hachureGap=4;orthogonalLoop=1;jettySize=auto;html=1;entryX=0;entryY=0.5;entryDx=0;entryDy=0;shadow=0;fontFamily=Architects Daughter;fontSource=https%3A%2F%2Ffonts.googleapis.com%2Fcss%3Ffamily%3DArchitects%2BDaughter;fontSize=18;endArrow=open;startSize=14;endSize=14;sourcePerimeterSpacing=8;targetPerimeterSpacing=8;" parent="1" source="Faw4RQUeOR1Ntfg5_-7v-60" target="Faw4RQUeOR1Ntfg5_-7v-61" edge="1">
          <mxGeometry relative="1" as="geometry" />
        </mxCell>
        <mxCell id="Faw4RQUeOR1Ntfg5_-7v-60" value="" style="rounded=1;whiteSpace=wrap;html=1;sketch=1;hachureGap=4;fontFamily=Architects Daughter;fontSource=https%3A%2F%2Ffonts.googleapis.com%2Fcss%3Ffamily%3DArchitects%2BDaughter;fontSize=18;fillColor=#ffff88;strokeColor=#36393d;" parent="1" vertex="1">
          <mxGeometry x="1382.5" y="20" width="125" height="230" as="geometry" />
        </mxCell>
        <mxCell id="Faw4RQUeOR1Ntfg5_-7v-61" value="初始化" style="rounded=1;whiteSpace=wrap;html=1;sketch=1;hachureGap=4;fontFamily=Architects Daughter;fontSource=https%3A%2F%2Ffonts.googleapis.com%2Fcss%3Ffamily%3DArchitects%2BDaughter;fontSize=18;fillColor=#cdeb8b;strokeColor=#36393d;" parent="1" vertex="1">
          <mxGeometry x="1570" y="20" width="125" height="230" as="geometry" />
        </mxCell>
        <mxCell id="Faw4RQUeOR1Ntfg5_-7v-64" value="加载" style="text;html=1;strokeColor=none;fillColor=none;align=center;verticalAlign=middle;whiteSpace=wrap;rounded=0;sketch=1;hachureGap=4;fontFamily=Architects Daughter;fontSource=https%3A%2F%2Ffonts.googleapis.com%2Fcss%3Ffamily%3DArchitects%2BDaughter;fontSize=18;" parent="1" vertex="1">
          <mxGeometry x="1220" y="30" width="60" height="30" as="geometry" />
        </mxCell>
        <mxCell id="Faw4RQUeOR1Ntfg5_-7v-65" value="链接" style="text;html=1;strokeColor=none;fillColor=none;align=center;verticalAlign=middle;whiteSpace=wrap;rounded=0;sketch=1;hachureGap=4;fontFamily=Architects Daughter;fontSource=https%3A%2F%2Ffonts.googleapis.com%2Fcss%3Ffamily%3DArchitects%2BDaughter;fontSize=18;" parent="1" vertex="1">
          <mxGeometry x="1415" y="30" width="60" height="30" as="geometry" />
        </mxCell>
        <mxCell id="Faw4RQUeOR1Ntfg5_-7v-66" value="&lt;font style=&quot;font-size: 12px;&quot;&gt;引导类加载器&lt;/font&gt;" style="rounded=1;whiteSpace=wrap;html=1;sketch=1;hachureGap=4;fontFamily=Architects Daughter;fontSource=https%3A%2F%2Ffonts.googleapis.com%2Fcss%3Ffamily%3DArchitects%2BDaughter;fontSize=18;" parent="1" vertex="1">
          <mxGeometry x="1210" y="80" width="80" height="40" as="geometry" />
        </mxCell>
        <mxCell id="Faw4RQUeOR1Ntfg5_-7v-67" value="&lt;font style=&quot;font-size: 12px;&quot;&gt;扩展类加载器&lt;/font&gt;" style="rounded=1;whiteSpace=wrap;html=1;sketch=1;hachureGap=4;fontFamily=Architects Daughter;fontSource=https%3A%2F%2Ffonts.googleapis.com%2Fcss%3Ffamily%3DArchitects%2BDaughter;fontSize=18;" parent="1" vertex="1">
          <mxGeometry x="1210" y="137" width="80" height="40" as="geometry" />
        </mxCell>
        <mxCell id="Faw4RQUeOR1Ntfg5_-7v-68" value="&lt;font size=&quot;1&quot;&gt;应用类加载器&lt;/font&gt;" style="rounded=1;whiteSpace=wrap;html=1;sketch=1;hachureGap=4;fontFamily=Architects Daughter;fontSource=https%3A%2F%2Ffonts.googleapis.com%2Fcss%3Ffamily%3DArchitects%2BDaughter;fontSize=18;" parent="1" vertex="1">
          <mxGeometry x="1210" y="190" width="80" height="40" as="geometry" />
        </mxCell>
        <mxCell id="Faw4RQUeOR1Ntfg5_-7v-69" value="验证" style="rounded=1;whiteSpace=wrap;html=1;sketch=1;hachureGap=4;fontFamily=Architects Daughter;fontSource=https%3A%2F%2Ffonts.googleapis.com%2Fcss%3Ffamily%3DArchitects%2BDaughter;fontSize=12;" parent="1" vertex="1">
          <mxGeometry x="1406" y="80" width="75" height="40" as="geometry" />
        </mxCell>
        <mxCell id="Faw4RQUeOR1Ntfg5_-7v-70" value="准备" style="rounded=1;whiteSpace=wrap;html=1;sketch=1;hachureGap=4;fontFamily=Architects Daughter;fontSource=https%3A%2F%2Ffonts.googleapis.com%2Fcss%3Ffamily%3DArchitects%2BDaughter;fontSize=12;" parent="1" vertex="1">
          <mxGeometry x="1407" y="137" width="75" height="40" as="geometry" />
        </mxCell>
        <mxCell id="Faw4RQUeOR1Ntfg5_-7v-71" value="解析" style="rounded=1;whiteSpace=wrap;html=1;sketch=1;hachureGap=4;fontFamily=Architects Daughter;fontSource=https%3A%2F%2Ffonts.googleapis.com%2Fcss%3Ffamily%3DArchitects%2BDaughter;fontSize=12;" parent="1" vertex="1">
          <mxGeometry x="1407.5" y="190" width="75" height="40" as="geometry" />
        </mxCell>
        <mxCell id="Faw4RQUeOR1Ntfg5_-7v-74" value="通过一个类的全限定名获取此类的二进制字节流（可从多个地方获取），所代表的信息转为方法区运行时数据结构，同时会在方法区生成一个代表这个类的Class对象，作为对应数据入口" style="shape=note;size=20;whiteSpace=wrap;html=1;rounded=0;shadow=0;glass=0;labelBackgroundColor=none;labelBorderColor=none;sketch=1;hachureGap=4;fontFamily=Architects Daughter;fontSource=https%3A%2F%2Ffonts.googleapis.com%2Fcss%3Ffamily%3DArchitects%2BDaughter;fontSize=16;fillColor=#e3c800;strokeColor=#B09500;fontColor=#000000;" parent="1" vertex="1">
          <mxGeometry x="930" y="-20" width="160" height="225" as="geometry" />
        </mxCell>
        <mxCell id="5SP2Hkb6CLst0mhZNxZb-2" style="edgeStyle=orthogonalEdgeStyle;orthogonalLoop=1;jettySize=auto;html=1;exitX=0.5;exitY=1;exitDx=0;exitDy=0;exitPerimeter=0;entryX=0.5;entryY=0;entryDx=0;entryDy=0;fontFamily=Comic Sans MS;sketch=1;curved=1;dashed=1;" parent="1" source="5SP2Hkb6CLst0mhZNxZb-1" target="Faw4RQUeOR1Ntfg5_-7v-60" edge="1">
          <mxGeometry relative="1" as="geometry" />
        </mxCell>
        <mxCell id="5SP2Hkb6CLst0mhZNxZb-1" value="&lt;font face=&quot;Comic Sans MS&quot;&gt;&lt;b&gt;验证&lt;/b&gt;阶段确保Class文件符合规范，会进行文件格式，元数据，字节码，符号引用验证。&lt;br&gt;&lt;b&gt;准备&lt;/b&gt;阶段为类变量分配内存设置初始值0值 ，final修饰的static在编译阶段就分配了，在此处会进行赋值&lt;br&gt;&lt;b&gt;解析&lt;/b&gt;会将常量池中的符号引用转为直接引用（类似import包操作，不是以符号代表，而是指向目标的指针或句柄）&lt;br&gt;&lt;br&gt;&lt;/font&gt;" style="shape=note;size=20;whiteSpace=wrap;html=1;fillColor=#e3c800;strokeColor=#B09500;sketch=1;fontColor=#000000;" parent="1" vertex="1">
          <mxGeometry x="1323.5" y="-260" width="184" height="190" as="geometry" />
        </mxCell>
        <mxCell id="kVb7bWOc-YhVNDlkIjAP-2" style="edgeStyle=orthogonalEdgeStyle;orthogonalLoop=1;jettySize=auto;html=1;exitX=0.5;exitY=1;exitDx=0;exitDy=0;exitPerimeter=0;curved=1;dashed=1;" parent="1" source="kVb7bWOc-YhVNDlkIjAP-1" target="Faw4RQUeOR1Ntfg5_-7v-61" edge="1">
          <mxGeometry relative="1" as="geometry" />
        </mxCell>
        <mxCell id="kVb7bWOc-YhVNDlkIjAP-1" value="&lt;b&gt;初始化&lt;/b&gt;用于执行类&amp;lt;clinit()&amp;gt;方法，同时会收集静态变量和static代码块。按照定义的顺序执行如果没有类变量就没有该方法，但是会有&amp;lt;init()&amp;gt;方法" style="shape=note;size=20;whiteSpace=wrap;html=1;fillColor=#e3c800;strokeColor=#B09500;sketch=1;fontColor=#000000;" parent="1" vertex="1">
          <mxGeometry x="1610" y="-230" width="230" height="130" as="geometry" />
        </mxCell>
        <mxCell id="R8C0xm-D3BiyWD3rxAFL-1" style="edgeStyle=orthogonalEdgeStyle;orthogonalLoop=1;jettySize=auto;html=1;exitX=0.5;exitY=1;exitDx=0;exitDy=0;exitPerimeter=0;entryX=0.5;entryY=0;entryDx=0;entryDy=0;curved=1;dashed=1;" parent="1" source="uavmwpKasLI_t1cetmPj-1" target="Faw4RQUeOR1Ntfg5_-7v-59" edge="1">
          <mxGeometry relative="1" as="geometry" />
        </mxCell>
        <mxCell id="uavmwpKasLI_t1cetmPj-1" value="类加载器不是子父级关系而是包含关系，对于继承了ClassLoader的类加载器，JVM都统称为自定义加载器。引导类加载器用于加载Java核心库。" style="shape=note;size=20;whiteSpace=wrap;html=1;fillColor=#e3c800;fontColor=#000000;strokeColor=#B09500;sketch=1;" parent="1" vertex="1">
          <mxGeometry x="1080" y="-270" width="150" height="170" as="geometry" />
        </mxCell>
        <mxCell id="R8C0xm-D3BiyWD3rxAFL-3" style="edgeStyle=orthogonalEdgeStyle;curved=1;orthogonalLoop=1;jettySize=auto;html=1;exitX=0.5;exitY=1;exitDx=0;exitDy=0;exitPerimeter=0;entryX=0.5;entryY=0;entryDx=0;entryDy=0;dashed=1;" parent="1" source="R8C0xm-D3BiyWD3rxAFL-2" target="Faw4RQUeOR1Ntfg5_-7v-59" edge="1">
          <mxGeometry relative="1" as="geometry" />
        </mxCell>
        <mxCell id="R8C0xm-D3BiyWD3rxAFL-2" value="Java虚拟机对类使用按需加载的方式，双亲委派就是将加载请求交由父类处理。" style="shape=note;size=20;whiteSpace=wrap;html=1;fillColor=#e3c800;fontColor=#000000;strokeColor=#B09500;sketch=1;" parent="1" vertex="1">
          <mxGeometry x="860" y="-200" width="170" height="90" as="geometry" />
        </mxCell>
        <mxCell id="Bb6Hwb2SqrQJIxjeNM7L-1" value="&lt;span style=&quot;color: rgb(0, 0, 0); font-family: Helvetica; font-size: 12px;&quot;&gt;指向下一行要执行的指令地址，线程私有。如果执行的是native方法，则是undefned。该区域是唯一没有OOM的区域。CPU需要不停切换线程，用于切换时知道接下来该执行什么指令&lt;/span&gt;" style="whiteSpace=wrap;html=1;fontSize=20;fontFamily=Architects Daughter;fillColor=#1ba1e2;strokeColor=#006EAF;rounded=1;sketch=1;hachureGap=4;fontSource=https%3A%2F%2Ffonts.googleapis.com%2Fcss%3Ffamily%3DArchitects%2BDaughter;fontColor=#ffffff;" parent="1" vertex="1">
          <mxGeometry x="1310" y="720" width="310" height="190" as="geometry" />
        </mxCell>
        <mxCell id="k2cswU666XtifslHD5MH-26" style="edgeStyle=orthogonalEdgeStyle;curved=1;orthogonalLoop=1;jettySize=auto;html=1;exitX=0;exitY=0;exitDx=170;exitDy=120;exitPerimeter=0;entryX=-0.008;entryY=0.401;entryDx=0;entryDy=0;entryPerimeter=0;dashed=1;fontSize=14;" parent="1" source="k2cswU666XtifslHD5MH-1" target="k2cswU666XtifslHD5MH-2" edge="1">
          <mxGeometry relative="1" as="geometry" />
        </mxCell>
        <mxCell id="k2cswU666XtifslHD5MH-1" value="每个线程都有一个虚拟机栈，其内部都是一个一个的栈帧，用于保存方法的局部变量，部分结果，一个方法就是一个栈帧" style="shape=note;strokeWidth=2;fontSize=16;size=20;whiteSpace=wrap;html=1;fillColor=#e3c800;strokeColor=#B09500;fontColor=#000000;sketch=1;" parent="1" vertex="1">
          <mxGeometry x="210" width="170" height="220" as="geometry" />
        </mxCell>
        <mxCell id="k2cswU666XtifslHD5MH-12" value="" style="group" parent="1" vertex="1" connectable="0">
          <mxGeometry x="470" y="130" width="70" height="145" as="geometry" />
        </mxCell>
        <mxCell id="k2cswU666XtifslHD5MH-4" value="" style="rounded=1;whiteSpace=wrap;html=1;sketch=1;fontSize=16;fillColor=#d0cee2;strokeColor=#56517e;" parent="k2cswU666XtifslHD5MH-12" vertex="1">
          <mxGeometry width="70" height="145" as="geometry" />
        </mxCell>
        <mxCell id="k2cswU666XtifslHD5MH-7" value="&lt;font style=&quot;font-size: 14px;&quot;&gt;线程1&lt;/font&gt;" style="text;html=1;strokeColor=none;fillColor=none;align=center;verticalAlign=middle;whiteSpace=wrap;rounded=0;sketch=1;fontSize=16;" parent="k2cswU666XtifslHD5MH-12" vertex="1">
          <mxGeometry x="14" y="11.756756756756754" width="42" height="23.51351351351351" as="geometry" />
        </mxCell>
        <mxCell id="k2cswU666XtifslHD5MH-8" value="栈帧" style="text;html=1;strokeColor=#b85450;fillColor=#f8cecc;align=center;verticalAlign=middle;whiteSpace=wrap;overflow=hidden;sketch=1;fontSize=16;" parent="k2cswU666XtifslHD5MH-12" vertex="1">
          <mxGeometry x="7" y="35.27027027027027" width="56" height="31.35135135135135" as="geometry" />
        </mxCell>
        <mxCell id="k2cswU666XtifslHD5MH-11" value="栈帧" style="text;html=1;strokeColor=#b85450;fillColor=#f8cecc;align=center;verticalAlign=middle;whiteSpace=wrap;overflow=hidden;sketch=1;fontSize=16;" parent="k2cswU666XtifslHD5MH-12" vertex="1">
          <mxGeometry x="7" y="89.78116826503923" width="56" height="31.35135135135135" as="geometry" />
        </mxCell>
        <mxCell id="k2cswU666XtifslHD5MH-13" value="" style="group" parent="1" vertex="1" connectable="0">
          <mxGeometry x="560" y="130" width="75" height="145" as="geometry" />
        </mxCell>
        <mxCell id="k2cswU666XtifslHD5MH-14" value="" style="rounded=1;whiteSpace=wrap;html=1;sketch=1;fontSize=16;fillColor=#d0cee2;strokeColor=#56517e;" parent="k2cswU666XtifslHD5MH-13" vertex="1">
          <mxGeometry width="75" height="145" as="geometry" />
        </mxCell>
        <mxCell id="k2cswU666XtifslHD5MH-15" value="线程2" style="text;html=1;strokeColor=none;fillColor=none;align=center;verticalAlign=middle;whiteSpace=wrap;rounded=0;sketch=1;fontSize=16;" parent="k2cswU666XtifslHD5MH-13" vertex="1">
          <mxGeometry x="15" y="11.756756756756754" width="45" height="23.51351351351351" as="geometry" />
        </mxCell>
        <mxCell id="k2cswU666XtifslHD5MH-16" value="栈帧" style="text;html=1;strokeColor=#b85450;fillColor=#f8cecc;align=center;verticalAlign=middle;whiteSpace=wrap;overflow=hidden;sketch=1;fontSize=16;" parent="k2cswU666XtifslHD5MH-13" vertex="1">
          <mxGeometry x="7.5" y="35.27027027027027" width="60" height="31.35135135135135" as="geometry" />
        </mxCell>
        <mxCell id="k2cswU666XtifslHD5MH-17" value="栈帧" style="text;html=1;strokeColor=#b85450;fillColor=#f8cecc;align=center;verticalAlign=middle;whiteSpace=wrap;overflow=hidden;sketch=1;fontSize=16;" parent="k2cswU666XtifslHD5MH-13" vertex="1">
          <mxGeometry x="7.5" y="82.29729729729729" width="60" height="31.35135135135135" as="geometry" />
        </mxCell>
        <mxCell id="k2cswU666XtifslHD5MH-18" value="" style="group" parent="1" vertex="1" connectable="0">
          <mxGeometry x="650" y="130" width="80" height="150" as="geometry" />
        </mxCell>
        <mxCell id="k2cswU666XtifslHD5MH-19" value="" style="rounded=1;whiteSpace=wrap;html=1;sketch=1;fontSize=16;fillColor=#d0cee2;strokeColor=#56517e;" parent="k2cswU666XtifslHD5MH-18" vertex="1">
          <mxGeometry width="80" height="150" as="geometry" />
        </mxCell>
        <mxCell id="k2cswU666XtifslHD5MH-20" value="线程3" style="text;html=1;strokeColor=none;fillColor=none;align=center;verticalAlign=middle;whiteSpace=wrap;rounded=0;sketch=1;fontSize=16;" parent="k2cswU666XtifslHD5MH-18" vertex="1">
          <mxGeometry x="16" y="12.162162162162163" width="48" height="24.324324324324326" as="geometry" />
        </mxCell>
        <mxCell id="k2cswU666XtifslHD5MH-21" value="栈帧" style="text;html=1;strokeColor=#b85450;fillColor=#f8cecc;align=center;verticalAlign=middle;whiteSpace=wrap;overflow=hidden;sketch=1;fontSize=16;" parent="k2cswU666XtifslHD5MH-18" vertex="1">
          <mxGeometry x="8" y="36.486486486486484" width="64" height="32.432432432432435" as="geometry" />
        </mxCell>
        <mxCell id="k2cswU666XtifslHD5MH-22" value="栈帧" style="text;html=1;strokeColor=#b85450;fillColor=#f8cecc;align=center;verticalAlign=middle;whiteSpace=wrap;overflow=hidden;sketch=1;fontSize=16;" parent="k2cswU666XtifslHD5MH-18" vertex="1">
          <mxGeometry x="8" y="85.13513513513514" width="64" height="32.432432432432435" as="geometry" />
        </mxCell>
        <mxCell id="k2cswU666XtifslHD5MH-28" style="edgeStyle=orthogonalEdgeStyle;curved=1;orthogonalLoop=1;jettySize=auto;html=1;exitX=0.5;exitY=1;exitDx=0;exitDy=0;exitPerimeter=0;dashed=1;fontSize=16;" parent="1" source="k2cswU666XtifslHD5MH-27" target="k2cswU666XtifslHD5MH-2" edge="1">
          <mxGeometry relative="1" as="geometry" />
        </mxCell>
        <mxCell id="k2cswU666XtifslHD5MH-27" value="&lt;font style=&quot;font-size: 16px;&quot;&gt;固定大小的栈会出StackOverflowError，对于动态大小的在申请不到足够的内存是会抛出OOM，使用-Xss可以设置线程栈的大小，并不是越大越好，越大会造成线程数减少。&lt;/font&gt;" style="shape=note;strokeWidth=2;fontSize=14;size=20;whiteSpace=wrap;html=1;fillColor=#e3c800;strokeColor=#B09500;sketch=1;fontColor=#000000;" parent="1" vertex="1">
          <mxGeometry x="400" y="-210" width="146" height="210" as="geometry" />
        </mxCell>
        <mxCell id="k2cswU666XtifslHD5MH-29" value="" style="text;html=1;strokeColor=#b85450;fillColor=#f8cecc;align=center;verticalAlign=middle;whiteSpace=wrap;overflow=hidden;sketch=1;fontSize=16;" parent="1" vertex="1">
          <mxGeometry x="610" y="-70" width="230" height="140" as="geometry" />
        </mxCell>
        <mxCell id="k2cswU666XtifslHD5MH-37" style="edgeStyle=orthogonalEdgeStyle;curved=1;orthogonalLoop=1;jettySize=auto;html=1;exitX=0.5;exitY=0;exitDx=0;exitDy=0;entryX=0.4;entryY=1;entryDx=0;entryDy=0;entryPerimeter=0;dashed=1;fontSize=16;" parent="1" source="k2cswU666XtifslHD5MH-30" target="k2cswU666XtifslHD5MH-36" edge="1">
          <mxGeometry relative="1" as="geometry" />
        </mxCell>
        <mxCell id="k2cswU666XtifslHD5MH-30" value="局部变量表" style="text;html=1;strokeColor=#d6b656;fillColor=#fff2cc;align=center;verticalAlign=middle;whiteSpace=wrap;overflow=hidden;sketch=1;fontSize=16;" parent="1" vertex="1">
          <mxGeometry x="620" y="-50" width="90" height="30" as="geometry" />
        </mxCell>
        <mxCell id="k2cswU666XtifslHD5MH-31" value="返回地址" style="text;html=1;strokeColor=#d6b656;fillColor=#fff2cc;align=center;verticalAlign=middle;whiteSpace=wrap;overflow=hidden;sketch=1;fontSize=16;" parent="1" vertex="1">
          <mxGeometry x="730" y="-50" width="90" height="30" as="geometry" />
        </mxCell>
        <mxCell id="k2cswU666XtifslHD5MH-32" value="操作数栈" style="text;html=1;strokeColor=#d6b656;fillColor=#fff2cc;align=center;verticalAlign=middle;whiteSpace=wrap;overflow=hidden;sketch=1;fontSize=16;" parent="1" vertex="1">
          <mxGeometry x="620" y="-10" width="90" height="30" as="geometry" />
        </mxCell>
        <mxCell id="k2cswU666XtifslHD5MH-33" value="动态链接" style="text;html=1;strokeColor=#d6b656;fillColor=#fff2cc;align=center;verticalAlign=middle;whiteSpace=wrap;overflow=hidden;sketch=1;fontSize=16;" parent="1" vertex="1">
          <mxGeometry x="730" y="-10" width="90" height="30" as="geometry" />
        </mxCell>
        <mxCell id="k2cswU666XtifslHD5MH-34" value="附加信息" style="text;html=1;strokeColor=#d6b656;fillColor=#fff2cc;align=center;verticalAlign=middle;whiteSpace=wrap;overflow=hidden;sketch=1;fontSize=16;" parent="1" vertex="1">
          <mxGeometry x="620" y="30" width="200" height="30" as="geometry" />
        </mxCell>
        <mxCell id="k2cswU666XtifslHD5MH-35" style="edgeStyle=orthogonalEdgeStyle;curved=1;orthogonalLoop=1;jettySize=auto;html=1;exitX=1;exitY=0.5;exitDx=0;exitDy=0;entryX=0.75;entryY=1;entryDx=0;entryDy=0;dashed=1;fontSize=16;" parent="1" source="k2cswU666XtifslHD5MH-21" target="k2cswU666XtifslHD5MH-29" edge="1">
          <mxGeometry relative="1" as="geometry" />
        </mxCell>
        <mxCell id="k2cswU666XtifslHD5MH-36" value="&lt;span style=&quot;font-size: 16px;&quot;&gt;局部变量表定义为一个数组，大小是在编译期间确定的，只在当前栈帧中有效。操作数栈用于保存临时变量，在编译时就知道最大深度。动态链接指向运行常量池中的方法引用，对于非虚方法在编译时就可知道对应引用，虚方法会通过在解析阶段生成的虚方法表进行映射(invokestatic,special是非虚方法，virtual和interface是虚方法)。&lt;/span&gt;" style="shape=note;strokeWidth=2;fontSize=14;size=20;whiteSpace=wrap;html=1;fillColor=#e3c800;strokeColor=#B09500;sketch=1;fontColor=#000000;" parent="1" vertex="1">
          <mxGeometry x="580" y="-310" width="250" height="200" as="geometry" />
        </mxCell>
        <mxCell id="Wj8xDszgT1-WGROd7AIG-3" style="edgeStyle=orthogonalEdgeStyle;orthogonalLoop=1;jettySize=auto;html=1;exitX=0.5;exitY=0;exitDx=0;exitDy=0;exitPerimeter=0;entryX=0.5;entryY=1;entryDx=0;entryDy=0;curved=1;dashed=1;" parent="1" source="Wj8xDszgT1-WGROd7AIG-2" target="Faw4RQUeOR1Ntfg5_-7v-32" edge="1">
          <mxGeometry relative="1" as="geometry" />
        </mxCell>
        <mxCell id="Wj8xDszgT1-WGROd7AIG-2" value="本地方法接口作用就是为了融合其他编程语言为java所用" style="shape=note;size=20;whiteSpace=wrap;html=1;sketch=1;fillColor=#e3c800;fontColor=#000000;strokeColor=#B09500;" parent="1" vertex="1">
          <mxGeometry x="1040" y="990" width="170" height="140" as="geometry" />
        </mxCell>
        <mxCell id="Wj8xDszgT1-WGROd7AIG-5" style="edgeStyle=orthogonalEdgeStyle;curved=1;orthogonalLoop=1;jettySize=auto;html=1;exitX=0;exitY=0.5;exitDx=0;exitDy=0;exitPerimeter=0;entryX=1;entryY=0.25;entryDx=0;entryDy=0;dashed=1;fontColor=#000000;" parent="1" source="Wj8xDszgT1-WGROd7AIG-4" target="Faw4RQUeOR1Ntfg5_-7v-7" edge="1">
          <mxGeometry relative="1" as="geometry" />
        </mxCell>
        <mxCell id="Wj8xDszgT1-WGROd7AIG-4" value="&lt;font color=&quot;#000000&quot;&gt;用于管理本地方法调用。并不是所有jvm都支持本地方法，在hotspot中直接将虚拟机栈和本地方法栈合二为一。&lt;/font&gt;" style="shape=note;size=20;whiteSpace=wrap;html=1;sketch=1;fillColor=#1ba1e2;fontColor=#ffffff;strokeColor=#006EAF;" parent="1" vertex="1">
          <mxGeometry x="1260" y="550" width="180" height="130" as="geometry" />
        </mxCell>
        <mxCell id="NWxRKm_0L-wRh15dt9WS-11" style="edgeStyle=orthogonalEdgeStyle;curved=1;orthogonalLoop=1;jettySize=auto;html=1;exitX=0;exitY=0;exitDx=200;exitDy=110;exitPerimeter=0;entryX=0;entryY=0.25;entryDx=0;entryDy=0;dashed=1;fontSize=16;" edge="1" parent="1" source="NWxRKm_0L-wRh15dt9WS-1" target="NWxRKm_0L-wRh15dt9WS-2">
          <mxGeometry relative="1" as="geometry" />
        </mxCell>
        <mxCell id="NWxRKm_0L-wRh15dt9WS-1" value="&lt;font style=&quot;font-size: 16px;&quot;&gt;现代垃圾器大部分都是基于分代收集理论进行设计的：老年代，新生代，jdk8中将永久代换为元空间。-Xms设置最小堆（新生代和老年代）空间，-Xmx设置最堆空间，默认最小为物理内存1/64，最大1/4，开发中建议两个参数设置成一样的。s0和s1只能使用一个(算法问题)&lt;/font&gt;" style="shape=note;size=20;whiteSpace=wrap;html=1;fillColor=#e3c800;strokeColor=#B09500;sketch=1;fontColor=#000000;fontSize=16;" vertex="1" parent="1">
          <mxGeometry x="-130" y="200" width="240" height="230" as="geometry" />
        </mxCell>
        <mxCell id="NWxRKm_0L-wRh15dt9WS-10" value="" style="group;dashed=1;" vertex="1" connectable="0" parent="1">
          <mxGeometry x="170" y="350" width="330" height="210" as="geometry" />
        </mxCell>
        <mxCell id="NWxRKm_0L-wRh15dt9WS-2" value="" style="rounded=1;whiteSpace=wrap;html=1;sketch=1;fontSize=16;fillColor=none;" vertex="1" parent="NWxRKm_0L-wRh15dt9WS-10">
          <mxGeometry width="330" height="200" as="geometry" />
        </mxCell>
        <mxCell id="NWxRKm_0L-wRh15dt9WS-3" value="伊甸园" style="rounded=1;whiteSpace=wrap;html=1;sketch=1;fontSize=16;fillColor=#fad7ac;strokeColor=#b46504;" vertex="1" parent="NWxRKm_0L-wRh15dt9WS-10">
          <mxGeometry x="20" y="30" width="130" height="60" as="geometry" />
        </mxCell>
        <mxCell id="NWxRKm_0L-wRh15dt9WS-5" value="幸存0" style="rounded=1;whiteSpace=wrap;html=1;sketch=1;fontSize=16;fillColor=#d0cee2;strokeColor=#56517e;" vertex="1" parent="NWxRKm_0L-wRh15dt9WS-10">
          <mxGeometry x="20" y="105" width="60" height="60" as="geometry" />
        </mxCell>
        <mxCell id="NWxRKm_0L-wRh15dt9WS-6" value="幸存1" style="rounded=1;whiteSpace=wrap;html=1;sketch=1;fontSize=16;fillColor=#d0cee2;strokeColor=#56517e;" vertex="1" parent="NWxRKm_0L-wRh15dt9WS-10">
          <mxGeometry x="90" y="105" width="60" height="60" as="geometry" />
        </mxCell>
        <mxCell id="NWxRKm_0L-wRh15dt9WS-7" value="老年代" style="rounded=1;whiteSpace=wrap;html=1;sketch=1;fontSize=16;fillColor=#b0e3e6;strokeColor=#0e8088;" vertex="1" parent="NWxRKm_0L-wRh15dt9WS-10">
          <mxGeometry x="180" y="30" width="120" height="140" as="geometry" />
        </mxCell>
        <mxCell id="NWxRKm_0L-wRh15dt9WS-12" value="" style="shape=curlyBracket;whiteSpace=wrap;html=1;rounded=1;flipH=1;sketch=1;fontSize=16;direction=north;" vertex="1" parent="NWxRKm_0L-wRh15dt9WS-10">
          <mxGeometry x="25" y="170" width="125" height="10" as="geometry" />
        </mxCell>
        <mxCell id="NWxRKm_0L-wRh15dt9WS-13" value="新生代" style="text;html=1;strokeColor=none;fillColor=none;align=center;verticalAlign=middle;whiteSpace=wrap;rounded=0;sketch=1;fontSize=16;" vertex="1" parent="NWxRKm_0L-wRh15dt9WS-10">
          <mxGeometry x="50" y="180" width="75" height="10" as="geometry" />
        </mxCell>
        <mxCell id="NWxRKm_0L-wRh15dt9WS-8" value="元空间" style="rounded=1;whiteSpace=wrap;html=1;sketch=1;fontSize=16;fillColor=#cdeb8b;strokeColor=#36393d;dashed=1;" vertex="1" parent="1">
          <mxGeometry x="500" y="570" width="70" height="140" as="geometry" />
        </mxCell>
      </root>
    </mxGraphModel>
  </diagram>
</mxfile>
